<?xml version="1.0" encoding="utf-8"?>
<!-- Generator: Adobe Illustrator 25.2.3, SVG Export Plug-In . SVG Version: 6.00 Build 0)  -->
<svg version="1.1" id="レイヤー_1" xmlns="http://www.w3.org/2000/svg" xmlns:xlink="http://www.w3.org/1999/xlink" x="0px"
	 y="0px" viewBox="0 0 330 42" style="enable-background:new 0 0 330 42;" xml:space="preserve">
<style type="text/css">
	.st0{fill:none;}
	.st1{display:none;}
	.st2{display:inline;}
	.st3{fill:url(#SVGID_17_);stroke:#25770B;stroke-miterlimit:10;}
	.st4{fill:url(#SVGID_18_);stroke:#25770B;stroke-miterlimit:10;}
	.st5{fill:url(#SVGID_19_);stroke:#25770B;stroke-miterlimit:10;}
	.st6{fill:url(#SVGID_20_);stroke:#25770B;stroke-miterlimit:10;}
	.st7{fill:url(#SVGID_21_);stroke:#25770B;stroke-miterlimit:10;}
	.st8{fill:url(#SVGID_22_);stroke:#25770B;stroke-miterlimit:10;}
	.st9{fill:url(#SVGID_23_);stroke:#25770B;stroke-miterlimit:10;}
	.st10{fill:url(#SVGID_24_);stroke:#25770B;stroke-miterlimit:10;}
	.st11{fill:url(#SVGID_25_);stroke:#25770B;stroke-miterlimit:10;}
	.st12{fill:url(#SVGID_26_);stroke:#25770B;stroke-miterlimit:10;}
	.st13{fill:url(#SVGID_27_);stroke:#25770B;stroke-miterlimit:10;}
	.st14{fill:url(#SVGID_28_);stroke:#25770B;stroke-miterlimit:10;}
	.st15{fill:url(#SVGID_29_);stroke:#25770B;stroke-miterlimit:10;}
	.st16{fill:url(#SVGID_30_);stroke:#25770B;stroke-miterlimit:10;}
	.st17{fill:url(#SVGID_31_);stroke:#25770B;stroke-miterlimit:10;}
	.st18{fill:url(#SVGID_32_);stroke:#25770B;stroke-miterlimit:10;}
	.st19{display:inline;opacity:0.42;}
	.st20{fill:#39960E;}
</style>
<pattern  y="42" width="330" height="42" patternUnits="userSpaceOnUse" id="SVGID_1_" viewBox="0 -42 330 42" style="overflow:visible;">
	<g>
		<rect y="-42" class="st0" width="330" height="42"/>
		<g>
			<rect y="-42" class="st0" width="330" height="42"/>
			<g>
				<rect y="-42" class="st0" width="330" height="42"/>
			</g>
		</g>
	</g>
</pattern>
<pattern  y="42" width="330" height="42" patternUnits="userSpaceOnUse" id="SVGID_10_" viewBox="0 -42 330 42" style="overflow:visible;">
	<g>
		<rect y="-42" class="st0" width="330" height="42"/>
		<g>
			<rect y="-42" class="st0" width="330" height="42"/>
			<g>
				<rect y="-42" class="st0" width="330" height="42"/>
			</g>
		</g>
	</g>
</pattern>
<pattern  y="42" width="330" height="42" patternUnits="userSpaceOnUse" id="SVGID_11_" viewBox="0 -42 330 42" style="overflow:visible;">
	<g>
		<rect y="-42" class="st0" width="330" height="42"/>
		<g>
			<rect y="-42" class="st0" width="330" height="42"/>
			<g>
				<rect y="-42" class="st0" width="330" height="42"/>
			</g>
		</g>
	</g>
</pattern>
<pattern  y="42" width="330" height="42" patternUnits="userSpaceOnUse" id="SVGID_12_" viewBox="0 -42 330 42" style="overflow:visible;">
	<g>
		<rect y="-42" class="st0" width="330" height="42"/>
		<g>
			<rect y="-42" class="st0" width="330" height="42"/>
			<g>
				<rect y="-42" class="st0" width="330" height="42"/>
			</g>
		</g>
	</g>
</pattern>
<pattern  y="42" width="330" height="42" patternUnits="userSpaceOnUse" id="SVGID_13_" viewBox="0 -42 330 42" style="overflow:visible;">
	<g>
		<rect y="-42" class="st0" width="330" height="42"/>
		<g>
			<rect y="-42" class="st0" width="330" height="42"/>
			<g>
				<rect y="-42" class="st0" width="330" height="42"/>
			</g>
		</g>
	</g>
</pattern>
<pattern  y="42" width="330" height="42" patternUnits="userSpaceOnUse" id="SVGID_14_" viewBox="0 -42 330 42" style="overflow:visible;">
	<g>
		<rect y="-42" class="st0" width="330" height="42"/>
		<g>
			<rect y="-42" class="st0" width="330" height="42"/>
			<g>
				<rect y="-42" class="st0" width="330" height="42"/>
			</g>
		</g>
	</g>
</pattern>
<pattern  y="42" width="330" height="42" patternUnits="userSpaceOnUse" id="SVGID_15_" viewBox="0 -42 330 42" style="overflow:visible;">
	<g>
		<rect y="-42" class="st0" width="330" height="42"/>
		<g>
			<rect y="-42" class="st0" width="330" height="42"/>
			<g>
				<rect y="-42" class="st0" width="330" height="42"/>
			</g>
		</g>
	</g>
</pattern>
<pattern  y="42" width="330" height="42" patternUnits="userSpaceOnUse" id="SVGID_16_" viewBox="0 -42 330 42" style="overflow:visible;">
	<g>
		<rect y="-42" class="st0" width="330" height="42"/>
		<g>
			<rect y="-42" class="st0" width="330" height="42"/>
			<g>
				<rect y="-42" class="st0" width="330" height="42"/>
			</g>
		</g>
	</g>
</pattern>
<pattern  y="42" width="330" height="42" patternUnits="userSpaceOnUse" id="SVGID_2_" viewBox="0 -42 330 42" style="overflow:visible;">
	<g>
		<rect y="-42" class="st0" width="330" height="42"/>
		<g>
			<rect y="-42" class="st0" width="330" height="42"/>
			<g>
				<rect y="-42" class="st0" width="330" height="42"/>
			</g>
		</g>
	</g>
</pattern>
<pattern  y="42" width="330" height="42" patternUnits="userSpaceOnUse" id="SVGID_3_" viewBox="0 -42 330 42" style="overflow:visible;">
	<g>
		<rect y="-42" class="st0" width="330" height="42"/>
		<g>
			<rect y="-42" class="st0" width="330" height="42"/>
			<g>
				<rect y="-42" class="st0" width="330" height="42"/>
			</g>
		</g>
	</g>
</pattern>
<pattern  y="42" width="330" height="42" patternUnits="userSpaceOnUse" id="SVGID_4_" viewBox="0 -42 330 42" style="overflow:visible;">
	<g>
		<rect y="-42" class="st0" width="330" height="42"/>
		<g>
			<rect y="-42" class="st0" width="330" height="42"/>
			<g>
				<rect y="-42" class="st0" width="330" height="42"/>
			</g>
		</g>
	</g>
</pattern>
<pattern  y="42" width="330" height="42" patternUnits="userSpaceOnUse" id="SVGID_5_" viewBox="0 -42 330 42" style="overflow:visible;">
	<g>
		<rect y="-42" class="st0" width="330" height="42"/>
		<g>
			<rect y="-42" class="st0" width="330" height="42"/>
			<g>
				<rect y="-42" class="st0" width="330" height="42"/>
			</g>
		</g>
	</g>
</pattern>
<pattern  y="42" width="330" height="42" patternUnits="userSpaceOnUse" id="SVGID_6_" viewBox="0 -42 330 42" style="overflow:visible;">
	<g>
		<rect y="-42" class="st0" width="330" height="42"/>
		<g>
			<rect y="-42" class="st0" width="330" height="42"/>
			<g>
				<rect y="-42" class="st0" width="330" height="42"/>
			</g>
		</g>
	</g>
</pattern>
<pattern  y="42" width="330" height="42" patternUnits="userSpaceOnUse" id="SVGID_7_" viewBox="0 -42 330 42" style="overflow:visible;">
	<g>
		<rect y="-42" class="st0" width="330" height="42"/>
		<g>
			<rect y="-42" class="st0" width="330" height="42"/>
			<g>
				<rect y="-42" class="st0" width="330" height="42"/>
			</g>
		</g>
	</g>
</pattern>
<pattern  y="42" width="330" height="42" patternUnits="userSpaceOnUse" id="SVGID_8_" viewBox="0 -42 330 42" style="overflow:visible;">
	<g>
		<rect y="-42" class="st0" width="330" height="42"/>
		<g>
			<rect y="-42" class="st0" width="330" height="42"/>
			<g>
				<rect y="-42" class="st0" width="330" height="42"/>
			</g>
		</g>
	</g>
</pattern>
<pattern  y="42" width="330" height="42" patternUnits="userSpaceOnUse" id="SVGID_9_" viewBox="0 -42 330 42" style="overflow:visible;">
	<g>
		<rect y="-42" class="st0" width="330" height="42"/>
		<g>
			<rect y="-42" class="st0" width="330" height="42"/>
			<g>
				<rect y="-42" class="st0" width="330" height="42"/>
			</g>
		</g>
	</g>
</pattern>
<g id="レイヤー_1_1_" class="st1">
	<g class="st2">
		<pattern  id="SVGID_17_" xlink:href="#SVGID_1_" patternTransform="matrix(1 0 0 1 546.2 33922.9414)">
		</pattern>
		<path class="st3" d="M18.7,29.6h-5.4l-0.1-2.3H17v-7.6h-5.5L11,29.5H5.3l-1.5-13h4.7l-0.1-1.6H3.5L3.1,11h5L7.9,8.8H12V11h4.3
			l-0.2,3.9h-4.3l-0.1,1.6h8.4L18.7,29.6z M8.8,19.8h-2l0.3,7.6h2.2L8.8,19.8z M20.2,14.9h-3.3l0.2-4h3.5L20.2,14.9z"/>
		<pattern  id="SVGID_18_" xlink:href="#SVGID_2_" patternTransform="matrix(1 0 0 1 567.5 33923.043)">
		</pattern>
		<path class="st4" d="M40.4,14.6H37l-0.1,1.8h3.4L40,19.7h-3.3l-0.3,3.5h-2.5l-0.2-3.5h-8.2l-0.3-3.3h8.2l-0.1-1.8h-8.4l-0.5-4.1
			H33l-0.1-1.8h4.6l-0.1,1.7H41L40.4,14.6z M39.2,29.6H26.7L26,23.1h2.6l0.2,4.3h10.5L39.2,29.6z"/>
		<pattern  id="SVGID_19_" xlink:href="#SVGID_3_" patternTransform="matrix(1 0 0 1 587.5 33922.8438)">
		</pattern>
		<path class="st5" d="M54.6,15.2h-5.4l-0.5,9.4h-1.8L46,15.2h-1.1l-0.5-4h1.2l-0.2-2.3h4.2l-0.1,2.3h5.3L54.6,15.2z M61.7,15.2
			h-1.9L59,21.6h2.1l-0.4,2.8h-2.1L58,29.5h-7.8L50,21.6h6.5v-6.8l-0.1-3.6h5.8L61.7,15.2z M56.5,24.4h-4.1v3.2h4.2L56.5,24.4z"/>
		<pattern  id="SVGID_20_" xlink:href="#SVGID_4_" patternTransform="matrix(1 0 0 1 607.7 33923.1445)">
		</pattern>
		<path class="st6" d="M80.7,29.5h-5.8v-2.4h3.8l0.2-12.7H77l-6.6,8l0.1,7.3h-1.9L68,25.3L66.6,27l-0.4-3.1l1.3-2L67,17.8h-1.7
			l-0.7-4.4h1.9L66,8.6h4.3l0.1,9.3l5.1-7.6h7.3L80.7,29.5z"/>
		<pattern  id="SVGID_21_" xlink:href="#SVGID_5_" patternTransform="matrix(1 0 0 1 629 33919.1445)">
		</pattern>
		<path class="st7" d="M99.9,19h-5.3l-0.1,3.7h4.9l-0.3,2.4h-4.7l-0.1,4.3H93l-0.6-4.3h-5.1l-0.4-2.4h5.2L91.6,19h-5.2l-0.5-3.3h5.2
			l-0.4-3.1h4l-0.1,3.1h5.6L99.9,19z"/>
		<pattern  id="SVGID_22_" xlink:href="#SVGID_6_" patternTransform="matrix(1 0 0 1 648.8 33913.043)">
		</pattern>
		<path class="st8" d="M114.1,25h-1.4v-2.7h-3.1l0.6,7.1h-1.1l-1.5-7.1H106l-0.3-2.2h1.4l-0.3-1.4h2.5l0.1,1.4h5.6L114.1,25z"/>
		<pattern  id="SVGID_23_" xlink:href="#SVGID_7_" patternTransform="matrix(1 0 0 1 663.5 33917.2422)">
		</pattern>
		<path class="st9" d="M120.8,18.6l-0.4-3.6h6.9v3.6H120.8z M131.9,29.1h-10l-0.2-2h8.8l0.5-12.6h3.2L131.9,29.1z"/>
		<pattern  id="SVGID_24_" xlink:href="#SVGID_8_" patternTransform="matrix(1 0 0 1 681.8 33918.4414)">
		</pattern>
		<path class="st10" d="M140.4,28.8h-1.7l0.5-14.3h3.7L140.4,28.8z M148.7,28.8l-2.9-14.5h2.1v2.5h1.9l0.6,11.9h-1.7L148.7,28.8
			L148.7,28.8z M150.9,16.6h-2.7l-0.1-3.3h3.1L150.9,16.6z M148.9,14l-0.1,1.9h1.5l0.2-1.9H148.9z"/>
		<pattern  id="SVGID_25_" xlink:href="#SVGID_9_" patternTransform="matrix(1 0 0 1 697.6 33917.9414)">
		</pattern>
		<path class="st11" d="M167.3,17.2l-4.4,5.3l4.1,6.4h-1.8l-4-4.3l-3.5,4.3h-2.1l7.7-11.7h-8.5l-0.3-3.4h13.3L167.3,17.2z"/>
		<pattern  id="SVGID_26_" xlink:href="#SVGID_10_" patternTransform="matrix(1 0 0 1 718.7 33920.9414)">
		</pattern>
		<path class="st12" d="M193,14.6h-16.9l-0.5-3.8h17.8L193,14.6z M192.4,20.7l-2.8,9.5h-10.5l-0.2-2.1h9l1.1-7.4h-12.3l-0.4-3.2
			h16.5L192.4,20.7z"/>
		<pattern  id="SVGID_27_" xlink:href="#SVGID_11_" patternTransform="matrix(1 0 0 1 741.2 33920.1445)">
		</pattern>
		<path class="st13" d="M215,15.2l-10,3.7h9.6l-1.5,11.3h-13.2l-0.9-6.8h9.4l-0.2,4.8h3.1v-6.5L199,21.6l-0.4-2.6l9.4-3.9h-9.5
			l-0.4-3.5h17.5L215,15.2z M206.1,25.7H202l0.1,2.5h4.1L206.1,25.7z"/>
		<pattern  id="SVGID_28_" xlink:href="#SVGID_12_" patternTransform="matrix(1 0 0 1 763.1 33920.8438)">
		</pattern>
		<path class="st14" d="M237.6,15.8h-3.1l-0.2,1.7h3.2l-0.4,3.1H234l-0.2,1.9h3.1l-0.3,2.7h-3L233,30h-10.9l-0.9-7.5h9.7l-0.1-1.9
			H221l-0.4-3.1h9.9l-0.1-1.7h-10l-0.4-3.6h10.3l-0.1-1.3h7l-0.2,1.3h1L237.6,15.8z M231,25.2h-7l0.1,2.8h7L231,25.2z"/>
		<pattern  id="SVGID_29_" xlink:href="#SVGID_13_" patternTransform="matrix(1 0 0 1 782.4 33925.3438)">
		</pattern>
		<path class="st15" d="M256.3,30.3c-0.2-1.4-0.4-2.1-0.7-3.1l-0.7-2.4h-7.8l-0.7,2.4c-0.4,1.1-0.5,2-0.7,3.1h-6.4
			c0.4-0.9,0.7-1.6,1.3-3.5l5.9-17.3c0.5-1.4,0.7-2.3,0.9-3.1h7.2c0.2,0.8,0.4,1.6,0.9,3.1l6,17.3c0.5,1.5,1,2.7,1.3,3.5H256.3z
			 M250.9,11.3l-2.6,8.6h5.2L250.9,11.3z"/>
		<pattern  id="SVGID_30_" xlink:href="#SVGID_14_" patternTransform="matrix(1 0 0 1 807.6 33920.4414)">
		</pattern>
		<path class="st16" d="M281.2,22.9h-6.5l-0.6,6.8h-2l-0.6-6.8h-6.6l-0.4-3.1h6.8l-0.3-3.2l-5.9,0.5l-0.4-3.8l16.9-2l-0.4,4.4
			l-5.8,0.5l-0.3,3.5h6.7L281.2,22.9z"/>
		<pattern  id="SVGID_31_" xlink:href="#SVGID_15_" patternTransform="matrix(1 0 0 1 829.9 33913.4414)">
		</pattern>
		<path class="st17" d="M303.3,21.6h-16l-0.5-3.3h16.9L303.3,21.6z"/>
		<pattern  id="SVGID_32_" xlink:href="#SVGID_16_" patternTransform="matrix(1 0 0 1 852.6 33919.8438)">
		</pattern>
		<path class="st18" d="M325.4,29.4h-15.5l-0.4-2.5l3.7-15h5L312.4,27H323l-2.4-7h3.6l1.5,7.1L325.4,29.4z"/>
	</g>
	<g class="st19">
		<path class="st20" d="M18.9,29.5h-5.4l-0.1-2.3h3.8v-7.6h-5.5l-0.5,9.8H5.5L4,16.4h4.7l-0.1-1.6H3.7l-0.4-3.9h5L8.1,8.7h4.1
			l-0.1,2.2h4.3l-0.2,3.9h-4.3l-0.1,1.6h8.4L18.9,29.5z M8.9,19.7h-2l0.3,7.6h2.2L8.9,19.7z M20.4,14.8h-3.3l0.2-4h3.5L20.4,14.8z"
			/>
		<path class="st20" d="M40.6,14.5h-3.4L37,16.3h3.4l-0.3,3.3h-3.3l-0.3,3.5H34l-0.2-3.5h-8.2l-0.3-3.3h8.2l-0.1-1.8H25l-0.5-4.1H33
			V8.6h4.6l-0.1,1.7h3.6L40.6,14.5z M39.3,29.5H26.9L26.2,23h2.6l0.2,4.3h10.5L39.3,29.5z"/>
		<path class="st20" d="M54.8,15.1h-5.4l-0.5,9.4h-1.8l-0.9-9.4h-1.1l-0.5-4h1.2l-0.2-2.3h4.2l-0.1,2.3H55L54.8,15.1z M61.8,15.1
			h-1.9l-0.7,6.4h2.1L61,24.3h-2.1l-0.6,5.1h-7.8l-0.4-7.9h6.5v-6.8l-0.1-3.6h5.8L61.8,15.1z M56.6,24.3h-4.1v3.2h4.2L56.6,24.3z"/>
		<path class="st20" d="M80.8,29.4H75V27h3.8L79,14.3h-1.9l-6.6,8l0.1,7.3h-1.9l-0.5-4.4l-1.4,1.7l-0.4-3.1l1.3-2l-0.5-4.1h-1.7
			l-0.7-4.4h1.9l-0.6-4.8h4.3l0.1,9.3l5.1-7.6h7.3L80.8,29.4z"/>
		<path class="st20" d="M100.1,18.9h-5.3l-0.1,3.7h4.9L99.3,25h-4.7l-0.1,4.3h-1.4L92.5,25h-5.1L87,22.6h5.2l-0.5-3.7h-5.2L86,15.6
			h5.2l-0.4-3.1h4l-0.1,3.1h5.6L100.1,18.9z"/>
		<path class="st20" d="M114.2,24.9h-1.4v-2.7h-3.1l0.6,7.1h-1.1l-1.5-7.1h-1.6l-0.3-2.2h1.4l-0.3-1.4h2.5l0.1,1.4h5.6L114.2,24.9z"
			/>
		<path class="st20" d="M120.9,18.6l-0.4-3.6h6.9v3.6H120.9z M132.1,29h-10l-0.2-2h8.8l0.5-12.6h3.2L132.1,29z"/>
		<path class="st20" d="M140.5,28.7h-1.7l0.5-14.3h3.7L140.5,28.7z M148.9,28.7L146,14.2h2.1v2.5h1.9l0.6,11.9h-1.7L148.9,28.7
			L148.9,28.7z M151.1,16.5h-2.7l-0.1-3.3h3.1L151.1,16.5z M149.1,13.9l-0.1,1.9h1.5l0.2-1.9H149.1z"/>
		<path class="st20" d="M167.4,17.1l-4.4,5.3l4.1,6.4h-1.8l-4-4.3l-3.5,4.3h-2.1l7.7-11.7h-8.5l-0.3-3.4h13.3L167.4,17.1z"/>
		<path class="st20" d="M193.2,14.5h-16.9l-0.5-3.8h17.8L193.2,14.5z M192.5,20.6l-2.8,9.5h-10.5L179,28h9l1.1-7.4h-12.3l-0.4-3.2
			H193L192.5,20.6z"/>
		<path class="st20" d="M215.2,15.1l-10,3.7h9.6l-1.5,11.3h-13.2l-0.9-6.8h9.4l-0.2,4.8h3.1v-6.5L199,21.5l-0.4-2.6L208,15h-9.5
			l-0.4-3.5h17.5L215.2,15.1z M206.2,25.6h-4.1l0.1,2.5h4.1L206.2,25.6z"/>
		<path class="st20" d="M237.8,15.7h-3.1l-0.2,1.7h3.2l-0.4,3.1h-3.1l-0.2,1.9h3.1l-0.3,2.7h-3l-0.5,4.8h-10.9l-0.9-7.5h9.7
			l-0.1-1.9h-9.7l-0.4-3.1h9.9l-0.1-1.7h-10l-0.4-3.6h10.3l-0.1-1.3h7l-0.2,1.3h1L237.8,15.7z M231.1,25.1h-7l0.1,2.8h7L231.1,25.1z
			"/>
		<path class="st20" d="M256.5,30.2c-0.2-1.4-0.4-2.1-0.7-3.1l-0.7-2.4h-7.8l-0.7,2.4c-0.4,1.1-0.5,2-0.7,3.1h-6.4
			c0.4-0.9,0.7-1.6,1.3-3.5l5.9-17.3c0.5-1.4,0.7-2.3,0.9-3.1h7.2c0.2,0.8,0.4,1.6,0.9,3.1l6,17.3c0.5,1.5,1,2.7,1.3,3.5H256.5z
			 M251.1,11.2l-2.6,8.6h5.2L251.1,11.2z"/>
		<path class="st20" d="M281.3,22.8h-6.5l-0.6,6.8h-2l-0.6-6.8H265l-0.4-3.1h6.8l-0.3-3.2l-5.9,0.5l-0.4-3.8l16.9-2l-0.4,4.4
			l-5.8,0.5l-0.3,3.5h6.7L281.3,22.8z"/>
		<path class="st20" d="M303.4,21.5h-16l-0.5-3.3h16.9L303.4,21.5z"/>
		<path class="st20" d="M325.6,29.3h-15.5l-0.4-2.5l3.7-15h5l-5.8,15.1h10.6l-2.4-7h3.6l1.5,7.1L325.6,29.3z"/>
	</g>
</g>
<image style="overflow:visible;" width="1097" height="231" xlink:href="D6D47F3CF6AEC5DE.png"  transform="matrix(0.24 0 0 0.24 33.36 -6.72)">
</image>
</svg>
